<?xml version="1.0" encoding="UTF-8"?>
<svg id="Layer_1" data-name="Layer 1" xmlns="http://www.w3.org/2000/svg" viewBox="0 0 422.17 83.56">
  <defs>
    <style>
      .cls-1, .cls-2 {
        fill: #231f20;
      }

      .cls-2 {
        fill-rule: evenodd;
      }
    </style>
  </defs>
  <path class="cls-2" d="M275.48,41.59v-1.26h-1.93c-4.54,0-7.99,1.58-10.36,4.73-2.17,2.91-3.25,6.94-3.25,12.09,0,2.95,.46,5.29,1.39,7.01,.96,1.83,2.35,2.75,4.16,2.75,3.05,0,5.56-3.07,7.53-9.22,1.65-5.15,2.47-10.52,2.47-16.1m2.82-3.6c-.08,8.6-.12,18.74-.12,30.42,0,.6-.54,.9-1.61,.9-.73,0-1.09-.28-1.09-.84v-12.78c-.36,2.96-1.36,5.78-2.99,8.46-2.15,3.44-4.77,5.16-7.83,5.16-2.63,0-4.64-1.14-6.04-3.42-1.24-2.08-1.85-4.86-1.85-8.34,0-6,1.46-10.68,4.38-14.04,3.28-3.68,8.24-5.52,14.88-5.52h2.28Zm.06-2.28h-9.78l.06,1.2-2.28-1.68,2.28-1.56-.06,1.14h9.78v.9Zm5.04,12.18l-1.68,2.28-1.62-2.28,1.14,.06v-9.78h.96v9.78l1.2-.06Z"/>
  <path class="cls-2" d="M312.12,49.81c0-2.87-.48-5.17-1.44-6.9s-2.26-2.6-3.9-2.6c-3.16,0-5.7,2.31-7.62,6.93-1.56,3.78-2.34,7.8-2.34,12.07,0,5.02,1.54,7.53,4.62,7.53s5.53-1.62,7.59-4.87c2.06-3.24,3.09-7.3,3.09-12.15m3.18-.08c0,5.24-1.34,9.74-4.02,13.5-2.8,4-6.34,6-10.62,6-4.6,0-6.9-3.62-6.9-10.87V19.13c0-.64,.55-.96,1.65-.96,.94,0,1.41,.3,1.41,.9v20.38c0,3.85-.14,6.95-.42,9.32,.56-2.44,1.64-4.68,3.24-6.72,2.24-2.76,4.88-4.14,7.92-4.14,2.6,0,4.58,1.16,5.94,3.48,1.2,2.08,1.8,4.86,1.8,8.34Zm-23.28-21.42l-1.68,2.28-1.62-2.28,1.14,.06v-9.78h.96v9.78l1.2-.06Zm27.96,18.84l-1.14-.06v9.78h-.9v-9.78l-1.2,.06,1.62-2.28,1.62,2.28Z"/>
  <path class="cls-2" d="M342.95,63.21c-.92,1.68-2.16,3.08-3.72,4.2-1.68,1.24-3.4,1.86-5.16,1.86-6.48,0-9.72-4.5-9.72-13.5,0-6.32,1.56-11.04,4.68-14.16,2.44-2.44,5.52-3.66,9.24-3.66,2.4,0,3.6,.4,3.6,1.2,0,.68-.6,1.02-1.8,1.02-.28,0-.68-.04-1.2-.12-.52-.08-.92-.12-1.2-.12-2.36,0-4.5,.96-6.42,2.88-2.4,2.4-3.6,6.74-3.6,13.02,0,7.44,2.32,11.16,6.96,11.16,2.24,0,4.36-1.56,6.36-4.68,.12-.2,.38-.3,.78-.3,.8,0,1.2,.4,1.2,1.2m-1.32-27.84h-9.78l.06,1.2-2.28-1.68,2.28-1.56-.06,1.14h9.78v.9Z"/>
  <path class="cls-2" d="M370.96,41.73v-1.26h-1.93c-4.54,0-7.99,1.58-10.36,4.73-2.17,2.91-3.25,6.94-3.25,12.09,0,2.95,.46,5.29,1.39,7.01,.96,1.83,2.35,2.75,4.16,2.75,3.05,0,5.56-3.07,7.53-9.22,1.65-5.15,2.47-10.52,2.47-16.1m2.7-21.9v48.72c0,.6-.54,.9-1.61,.9-.73,0-1.09-.28-1.09-.84v-12.78c-.36,2.96-1.36,5.78-2.99,8.46-2.15,3.44-4.77,5.16-7.84,5.16-2.63,0-4.64-1.14-6.04-3.42-1.24-2.08-1.86-4.86-1.86-8.35,0-5.93,1.42-10.55,4.26-13.88,3.12-3.68,7.88-5.59,14.28-5.71V19.9c0-1,.54-1.5,1.61-1.5,.85,0,1.27,.48,1.27,1.44Zm-4.5,16.56h-9.78l.06,1.2-2.28-1.68,2.28-1.56-.06,1.14h9.78v.9Zm9.36-7.98l-1.68,2.28-1.62-2.28,1.14,.06v-9.78h.96v9.78l1.2-.06Z"/>
  <path class="cls-2" d="M401.15,43.94c0-2.68-1.2-4.02-3.6-4.02s-4.46,1.08-6.06,3.24c-1.48,1.92-2.44,4.46-2.88,7.62,2.88-.08,5.46-.56,7.74-1.44,3.2-1.24,4.8-3.04,4.8-5.4m2.82-.18c0,2.88-1.84,5.16-5.52,6.84-3.04,1.4-6.38,2.08-10.02,2.04-.08,1.12-.12,2.14-.12,3.06,0,7.56,1.9,11.34,5.7,11.34,2.6,0,4.88-1.54,6.84-4.62,.12-.28,.42-.42,.9-.42,.84,0,1.26,.28,1.26,.84,0,.76-.7,1.84-2.1,3.24-2.16,2.16-4.58,3.24-7.26,3.24-5.8,0-8.7-4.66-8.7-13.98,0-4.6,1.02-8.52,3.06-11.76,2.4-3.72,5.7-5.58,9.9-5.58s6.06,1.92,6.06,5.76Zm-1.44,10.56l-2.28,1.62,.06-1.2h-9.78v-.84h9.78l-.06-1.2,2.28,1.62Z"/>
  <path class="cls-1" d="M48.12,68.15c0,.72-.48,1.08-1.5,1.08-.84,0-1.44-.48-1.74-1.44l-6.36-18.54H19.68l-7.08,19.26c-.18,.48-.72,.72-1.56,.72s-1.26-.18-1.26-.6c0-.48,.06-.84,.12-1.02L28.08,19.13c.24-.66,.84-.96,1.8-.96,.66,0,1.14,.3,1.38,.96l16.8,48.66c.06,.12,.06,.24,.06,.36ZM25.38,18.77l-3.54,9.06,1.14,.42-2.28,1.56-.78-2.7,1.08,.48,3.54-9.18,.84,.36Zm12.18,28.08l-5.1-15.12c-1.38-4.08-2.4-7.38-3-9.9-.36,1.68-1.5,5.1-3.42,10.26l-5.46,14.76h16.98Zm-5.52,5.4l-2.28,1.68,.06-1.2h-9.18v-.9h9.18l-.06-1.2,2.28,1.62Zm7.2-25.14l-.84,2.7-2.28-1.68,1.2-.36-3.18-9.18,.84-.42,3.18,9.36,1.08-.42Z"/>
  <path class="cls-1" d="M54.61,28.82l-1.68,2.28-1.62-2.28,1.14,.06v-9.78h.96v9.78l1.2-.06Zm28.56,26.04c0,4.26-1.62,7.68-4.86,10.26-3.3,2.64-7.62,3.96-13.08,3.96-.42,0-2.94-.06-7.5-.24-.72-.06-1.14-.12-1.32-.3s-.3-.54-.3-1.14V20.06c0-.66,.42-1.02,1.32-1.08,3.66-.3,6.6-.48,8.82-.48,5.04,0,8.82,.72,11.4,2.1,3.18,1.86,4.8,4.98,4.8,9.48,0,3.06-.72,5.52-2.16,7.38-1.56,2.04-4.14,3.66-7.74,4.8,7.08,.48,10.62,4.68,10.62,12.6Zm-4.14-24.36c0-3.96-1.44-6.72-4.26-8.1-1.98-.9-5.22-1.38-9.72-1.38-1.32,0-3.24,.06-5.76,.24v20.28h7.02c3.24,0,6.06-.84,8.46-2.52,2.82-2.04,4.26-4.86,4.26-8.52Zm.72,24.66c0-7.5-4.38-11.22-13.08-11.22h-7.38v22.44c4.44,.18,6.42,.3,5.88,.3,4.32,0,7.8-.9,10.32-2.7,2.82-1.98,4.26-4.92,4.26-8.82Zm-7.44-39.66l-2.28,1.62,.06-1.2h-9.78v-.84h9.78l-.06-1.2,2.28,1.62Z"/>
  <path class="cls-2" d="M124,19.72c0,1.04-.38,1.56-1.14,1.56,.04,0-.72-.08-2.28-.24-.8-.08-2.36-.12-4.68-.12-6.8,0-12.06,2.64-15.78,7.92-3.28,4.6-4.92,10.38-4.92,17.34,0,5.52,1.1,10.08,3.3,13.68,2.72,4.48,6.82,6.72,12.3,6.72,3.32,0,6.78-.84,10.38-2.52,.8,.04,1.2,.5,1.2,1.38,0,.44-.12,.7-.36,.78-3.76,2.04-7.82,3.06-12.18,3.06-6.32,0-11.02-2.34-14.1-7.02-2.68-4-4.02-9.38-4.02-16.14,0-7.8,2.08-14.3,6.24-19.5,4.56-5.64,10.74-8.46,18.54-8.46,2.96,0,5.1,.16,6.42,.48,.72,.16,1.08,.52,1.08,1.08m-2.76-3.66h-9.78l.06,1.2-2.28-1.68,2.28-1.56-.06,1.14h9.78v.9Z"/>
  <path class="cls-2" d="M166.86,42.17c0-7.4-2.01-12.8-6.02-16.2-3.74-3.16-9.48-4.74-17.23-4.74-1.57,0-3.74,.06-6.51,.18v45.12c1.76,.12,3.34,.18,4.74,.18,7.6,0,13.7-2.34,18.3-7.02,4.48-4.56,6.72-10.4,6.72-17.52m-34.32-13.14l-1.68,2.28-1.62-2.28,1.14,.06v-9.78h.96v9.78l1.2-.06Zm37.92,12.84c0,7.72-2.64,14.18-7.92,19.38-5.48,5.36-12.5,8.04-21.06,8.04-1.52,0-3.42-.1-5.7-.3-.72-.04-1.18-.12-1.38-.24-.32-.2-.48-.6-.48-1.2l.24-47.28c0-.68,.46-1.04,1.38-1.08,5.36-.32,8.48-.48,9.36-.48,8.44,0,14.76,1.8,18.96,5.4,4.4,3.8,6.6,9.72,6.6,17.76Zm-20.16-26.16l-2.28,1.62,.06-1.2h-9.78v-.84h9.78l-.06-1.2,2.28,1.62Z"/>
  <path class="cls-1" d="M182.54,28.78l-1.68,2.28-1.62-2.28,1.14,.06v-9.78h.96v9.78l1.2-.06Zm26.76,38.28c0,.9-.42,1.38-1.32,1.38h-22.14c-.66,0-1.14-.06-1.38-.24-.3-.18-.42-.54-.42-1.2l.18-47.1c0-.78,.42-1.2,1.26-1.2h22.56c.72,0,1.08,.36,1.08,1.08,0,.96-.36,1.44-1.08,1.44h-20.82v20.22h20.76c.6,0,.9,.42,.9,1.2,0,.9-.36,1.32-1.02,1.32h-20.64v21.96h21c.72,0,1.08,.36,1.08,1.14Zm-12.54,4.44l-2.28,1.62,.06-1.2h-9.78v-.84h9.78l-.06-1.2,2.28,1.62Zm3.48-56.04l-2.28,1.62,.06-1.2h-9.78v-.84h9.78l-.06-1.2,2.28,1.62Zm0,22.98l-2.28,1.62,.06-1.2h-9.78v-.84h9.78l-.06-1.2,2.28,1.62Z"/>
  <path class="cls-1" d="M20.55,18.79l-.07,5.3h-.63c0-1.05,.03-2.64,.08-4.75-.11,.11-.32,.3-.65,.58l-.98,.83-.41-.39,2.11-1.69,.55,.12"/>
  <path class="cls-1" d="M41.99,24.09h-3.49l-.22-.52c.55-.44,.98-.79,1.28-1.04,.49-.42,.85-.77,1.08-1.04,.39-.47,.59-.91,.59-1.32,0-.31-.09-.54-.28-.71-.19-.17-.44-.26-.75-.26-.55,0-1,.1-1.35,.3l-.28-.44c.45-.25,1.02-.38,1.72-.38,.47,0,.85,.12,1.14,.35,.32,.26,.48,.62,.48,1.07,0,.71-.38,1.41-1.13,2.12-.41,.39-.68,.64-.81,.74-.32,.28-.61,.5-.88,.65,.35-.04,.62-.06,.82-.06h2.08v.54"/>
  <path class="cls-1" d="M24.4,59.47c0,.67-.24,1.19-.73,1.58-.45,.35-1.02,.53-1.7,.53s-1.23-.08-1.59-.25l.26-.5c.37,.15,.82,.22,1.37,.22,.48,0,.88-.14,1.21-.42,.32-.28,.49-.66,.49-1.13,0-.55-.23-.92-.7-1.11-.29-.11-.76-.17-1.41-.17h-.53v-.55h.55c.58-.01,1.05-.12,1.4-.32,.46-.25,.69-.64,.69-1.17,0-.79-.49-1.18-1.47-1.18-.5,0-.97,.1-1.42,.3l-.25-.47c.49-.25,1.07-.37,1.75-.37,1.4,0,2.1,.57,2.1,1.72,0,.39-.14,.75-.42,1.08-.27,.3-.6,.51-1,.62,.95,.16,1.42,.69,1.42,1.59"/>
  <path class="cls-1" d="M50.03,18.79l-.07,5.3h-.63c0-1.05,.03-2.64,.08-4.75-.11,.11-.32,.3-.65,.58l-.98,.83-.41-.39,2.11-1.69,.55,.12"/>
  <path class="cls-1" d="M64.18,13.39h-3.49l-.22-.52c.55-.44,.98-.79,1.28-1.04,.49-.42,.85-.77,1.08-1.04,.39-.47,.59-.91,.59-1.32,0-.31-.09-.54-.28-.71-.19-.17-.44-.26-.75-.26-.55,0-1,.1-1.35,.3l-.28-.44c.45-.25,1.02-.38,1.72-.38,.47,0,.85,.12,1.14,.35,.32,.26,.48,.62,.48,1.07,0,.71-.38,1.41-1.13,2.12-.41,.39-.68,.64-.81,.74-.32,.28-.61,.5-.88,.65,.35-.04,.62-.06,.82-.06h2.08v.54"/>
  <path class="cls-1" d="M124.66,11.49l-.07,5.3h-.63c0-1.05,.03-2.64,.08-4.75-.11,.11-.32,.3-.65,.58l-.98,.83-.41-.39,2.11-1.69,.55,.12"/>
  <path class="cls-1" d="M131.41,12.72l-.07,5.3h-.63c0-1.05,.03-2.64,.08-4.75-.11,.11-.32,.3-.65,.58l-.98,.83-.41-.39,2.11-1.69,.55,.12"/>
  <path class="cls-1" d="M142.42,13.39h-3.49l-.22-.52c.55-.44,.98-.79,1.28-1.04,.49-.42,.85-.77,1.08-1.04,.39-.47,.59-.91,.59-1.32,0-.31-.09-.54-.28-.71-.19-.17-.44-.26-.75-.26-.55,0-1,.1-1.35,.3l-.28-.44c.45-.25,1.02-.38,1.72-.38,.47,0,.85,.12,1.14,.35,.32,.26,.48,.62,.48,1.07,0,.71-.38,1.41-1.13,2.12-.41,.39-.68,.64-.81,.74-.32,.28-.61,.5-.88,.65,.35-.04,.62-.06,.82-.06h2.08v.54"/>
  <path class="cls-1" d="M181.3,12.16l-.07,5.3h-.63c0-1.05,.03-2.64,.08-4.75-.11,.11-.32,.3-.65,.58l-.98,.83-.41-.39,2.11-1.69,.55,.12"/>
  <path class="cls-1" d="M192.31,13.39h-3.49l-.22-.52c.55-.44,.98-.79,1.28-1.04,.49-.42,.85-.77,1.08-1.04,.39-.47,.59-.91,.59-1.32,0-.31-.09-.54-.28-.71-.19-.17-.44-.26-.75-.26-.55,0-1,.1-1.35,.3l-.28-.44c.45-.25,1.02-.38,1.72-.38,.47,0,.85,.12,1.14,.35,.32,.26,.48,.62,.48,1.07,0,.71-.38,1.41-1.13,2.12-.41,.39-.68,.64-.81,.74-.32,.28-.61,.5-.88,.65,.35-.04,.62-.06,.82-.06h2.08v.54"/>
  <path class="cls-1" d="M194.28,34.04c0,.67-.24,1.19-.73,1.58-.45,.35-1.02,.53-1.7,.53s-1.23-.08-1.59-.25l.26-.5c.37,.15,.82,.22,1.37,.22,.48,0,.88-.14,1.21-.42,.32-.28,.49-.66,.49-1.13,0-.55-.23-.92-.7-1.11-.29-.11-.76-.17-1.41-.17h-.53v-.55h.55c.58-.01,1.05-.12,1.4-.32,.46-.25,.69-.64,.69-1.17,0-.79-.49-1.18-1.48-1.18-.5,0-.97,.1-1.41,.3l-.25-.47c.49-.25,1.07-.37,1.74-.37,1.4,0,2.1,.57,2.1,1.72,0,.39-.14,.75-.42,1.08-.27,.3-.6,.51-1,.62,.95,.16,1.42,.69,1.42,1.59"/>
  <path class="cls-1" d="M277.47,27.75l-.07,5.3h-.63c0-1.05,.03-2.64,.08-4.75-.11,.11-.32,.3-.65,.58l-.98,.83-.41-.39,2.11-1.69,.55,.12"/>
  <path class="cls-1" d="M283.82,35.45h-3.49l-.22-.52c.55-.44,.98-.79,1.28-1.04,.49-.42,.85-.77,1.08-1.04,.39-.47,.59-.91,.59-1.32,0-.31-.09-.54-.28-.71-.19-.17-.44-.26-.75-.26-.55,0-1,.1-1.35,.3l-.28-.44c.45-.25,1.02-.38,1.72-.38,.47,0,.85,.12,1.14,.35,.32,.26,.48,.62,.48,1.07,0,.71-.38,1.41-1.13,2.12-.41,.39-.68,.64-.81,.74-.32,.28-.61,.5-.88,.65,.35-.04,.62-.06,.82-.06h2.08v.54"/>
  <path class="cls-1" d="M291.08,10.46l-.07,5.3h-.63c0-1.05,.03-2.64,.08-4.75-.11,.11-.32,.3-.65,.58l-.98,.83-.41-.39,2.11-1.69,.55,.12"/>
  <path class="cls-1" d="M340.4,26.62l-.07,5.3h-.63c0-1.05,.03-2.64,.08-4.75-.11,.11-.32,.3-.65,.58l-.98,.83-.41-.39,2.11-1.69,.55,.12"/>
  <path class="cls-1" d="M367.9,27.47l-.07,5.3h-.63c0-1.05,.03-2.64,.08-4.75-.11,.11-.32,.3-.65,.58l-.98,.83-.41-.39,2.11-1.69,.55,.12"/>
  <path class="cls-1" d="M379.06,16.46h-3.49l-.22-.52c.55-.44,.98-.79,1.28-1.04,.49-.42,.85-.77,1.08-1.04,.39-.47,.59-.91,.59-1.32,0-.31-.09-.55-.28-.72-.19-.17-.44-.25-.75-.25-.55,0-1,.1-1.35,.3l-.28-.44c.45-.25,1.02-.38,1.72-.38,.47,0,.85,.12,1.14,.35,.32,.26,.48,.62,.48,1.07,0,.71-.38,1.41-1.13,2.12-.41,.39-.68,.64-.81,.74-.32,.28-.61,.5-.88,.65,.35-.04,.62-.06,.82-.06h2.08v.54"/>
  <path class="cls-1" d="M393.07,56.9l-.07,5.3h-.63c0-1.05,.03-2.64,.08-4.75-.11,.11-.32,.3-.65,.58l-.98,.83-.41-.39,2.11-1.69,.55,.12"/>
</svg>