<?xml version="1.0" encoding="UTF-8"?>
<svg id="Layer_1" data-name="Layer 1" xmlns="http://www.w3.org/2000/svg" viewBox="0 0 84.04 83.56">
  <defs>
    <style>
      .cls-1, .cls-2 {
        fill: #231f20;
      }

      .cls-2 {
        fill-rule: evenodd;
      }
    </style>
  </defs>
  <path class="cls-2" d="M34.45,56.55c0,4.21-1.76,7.45-5.28,9.73-3,1.96-6.68,2.94-11.04,2.94-6.28,0-9.42-.52-9.42-1.56,0-1.24,.48-1.86,1.44-1.86,.84,0,2.13,.11,3.87,.33,1.74,.22,3.05,.33,3.93,.33,8.68,0,13.02-3.08,13.02-9.25,0-3.4-1.12-6.21-3.36-8.41-1.12-1.08-3.7-2.82-7.74-5.23-3.72-2.2-6.18-3.95-7.38-5.23-1.96-2.12-2.94-4.89-2.94-8.29,0-4.17,1.7-7.27,5.1-9.31,2.92-1.76,6.82-2.62,11.7-2.58,4.12,0,6.5,.35,7.14,1.04,.12,.12,.18,.47,.18,1.04,0,.85-.46,1.28-1.38,1.28-.84,0-2.14-.11-3.9-.33-1.76-.22-3.08-.33-3.96-.33-7.64,0-11.46,2.84-11.46,8.53,0,2.88,.88,5.25,2.64,7.09,1.04,1.12,3.16,2.62,6.36,4.51,4.24,2.48,7.1,4.51,8.58,6.07,2.6,2.64,3.9,5.81,3.9,9.49m-4.44-40.3h-9.78l.06,1.2-2.28-1.68,2.28-1.56-.06,1.14h9.78v.9Z"/>
  <path class="cls-2" d="M69.37,39.23c0,.88-.44,1.32-1.31,1.32-.32,0-.99-.11-2.03-.34-.6-.14-1.37-.2-2.33-.2-4.94,0-7.41,1.6-7.41,4.81,0,2.04,1.1,3.85,3.29,5.41,2.03,1.36,4.08,2.73,6.15,4.09,2.19,1.89,3.28,4.19,3.28,6.92,0,5.33-3.94,8-11.82,8-3.24,0-4.86-.44-4.86-1.32s.44-1.38,1.32-1.38c.4,0,1.14,.11,2.22,.33,.88,.18,1.8,.27,2.76,.27,1.92,0,3.54-.4,4.86-1.2,1.56-1,2.34-2.43,2.34-4.27,0-2.28-1.1-4.25-3.3-5.89-2.04-1.32-4.08-2.64-6.12-3.97-2.2-1.8-3.3-4.03-3.3-6.67,0-4.81,3.8-7.21,11.4-7.21,3.24,0,4.86,.44,4.86,1.32m-.54-3.6h-9.78l.06,1.2-2.28-1.68,2.28-1.56-.06,1.14h9.78v.9Z"/>
  <path class="cls-1" d="M29.39,7.81l-.07,5.3h-.63c0-1.05,.03-2.64,.08-4.75-.11,.11-.32,.3-.65,.58l-.98,.83-.41-.39,2.11-1.69,.55,.12"/>
  <path class="cls-1" d="M68.1,27.07l-.07,5.3h-.63c0-1.05,.03-2.64,.08-4.75-.11,.11-.32,.3-.65,.58l-.98,.83-.41-.39,2.11-1.69,.55,.12"/>
</svg>