<?xml version="1.0" encoding="UTF-8"?>
<svg id="Layer_1" data-name="Layer 1" xmlns="http://www.w3.org/2000/svg" viewBox="0 0 153.49 66.81">
  <defs>
    <style>
      .cls-1 {
        stroke: #f0f;
        stroke-width: .57px;
      }

      .cls-1, .cls-2 {
        fill: none;
      }

      .cls-2, .cls-3 {
        stroke: aqua;
        stroke-width: .28px;
      }
    </style>
  </defs>
  <rect class="cls-2" x=".14" y=".14" width="8.32" height="8.32"/>
  <rect class="cls-2" x=".14" y="8.46" width="8.32" height="8.32"/>
  <rect class="cls-2" x=".14" y="16.77" width="8.32" height="8.32"/>
  <rect class="cls-2" x=".14" y="25.09" width="8.32" height="8.32"/>
  <rect class="cls-2" x=".14" y="33.41" width="8.32" height="8.32"/>
  <rect class="cls-2" x=".14" y="41.72" width="8.32" height="8.32"/>
  <rect class="cls-2" x=".14" y="50.04" width="8.32" height="8.32"/>
  <rect class="cls-2" x=".14" y="58.36" width="8.32" height="8.32"/>
  <rect class="cls-2" x="8.46" y=".14" width="8.32" height="8.32"/>
  <rect class="cls-2" x="8.46" y="8.46" width="8.32" height="8.32"/>
  <rect class="cls-2" x="8.46" y="16.77" width="8.32" height="8.32"/>
  <rect class="cls-2" x="8.46" y="25.09" width="8.32" height="8.32"/>
  <rect class="cls-2" x="8.46" y="33.41" width="8.32" height="8.32"/>
  <rect class="cls-2" x="8.46" y="41.72" width="8.32" height="8.32"/>
  <rect class="cls-2" x="8.46" y="50.04" width="8.32" height="8.32"/>
  <rect class="cls-2" x="8.46" y="58.36" width="8.32" height="8.32"/>
  <rect class="cls-2" x="16.77" y=".14" width="8.32" height="8.32"/>
  <rect class="cls-2" x="16.77" y="8.46" width="8.32" height="8.32"/>
  <rect class="cls-2" x="16.77" y="16.77" width="8.32" height="8.32"/>
  <rect class="cls-2" x="16.77" y="25.09" width="8.32" height="8.32"/>
  <rect class="cls-2" x="16.77" y="33.41" width="8.32" height="8.32"/>
  <rect class="cls-2" x="16.77" y="41.72" width="8.32" height="8.32"/>
  <rect class="cls-2" x="16.77" y="50.04" width="8.32" height="8.32"/>
  <rect class="cls-2" x="16.77" y="58.36" width="8.32" height="8.32"/>
  <rect class="cls-2" x="25.09" y=".14" width="8.32" height="8.32"/>
  <rect class="cls-2" x="25.09" y="8.46" width="8.32" height="8.32"/>
  <rect class="cls-2" x="25.09" y="16.77" width="8.32" height="8.32"/>
  <rect class="cls-2" x="25.09" y="25.09" width="8.32" height="8.32"/>
  <rect class="cls-2" x="25.09" y="33.41" width="8.32" height="8.32"/>
  <rect class="cls-2" x="25.09" y="41.72" width="8.32" height="8.32"/>
  <rect class="cls-2" x="25.09" y="50.04" width="8.32" height="8.32"/>
  <rect class="cls-2" x="25.09" y="58.36" width="8.32" height="8.32"/>
  <rect class="cls-2" x="33.41" y=".14" width="8.32" height="8.32"/>
  <rect class="cls-2" x="33.41" y="8.46" width="8.32" height="8.32"/>
  <rect class="cls-2" x="33.41" y="16.77" width="8.32" height="8.32"/>
  <rect class="cls-2" x="33.41" y="25.09" width="8.32" height="8.32"/>
  <rect class="cls-2" x="33.41" y="33.41" width="8.32" height="8.32"/>
  <rect class="cls-2" x="33.41" y="41.72" width="8.32" height="8.32"/>
  <rect class="cls-2" x="33.41" y="50.04" width="8.32" height="8.32"/>
  <rect class="cls-2" x="33.41" y="58.36" width="8.32" height="8.32"/>
  <rect class="cls-2" x="41.72" y=".14" width="8.32" height="8.32"/>
  <rect class="cls-2" x="41.72" y="8.46" width="8.32" height="8.32"/>
  <rect class="cls-2" x="41.72" y="16.77" width="8.32" height="8.32"/>
  <rect class="cls-2" x="41.72" y="25.09" width="8.32" height="8.32"/>
  <rect class="cls-2" x="41.72" y="33.41" width="8.32" height="8.32"/>
  <rect class="cls-2" x="41.72" y="41.72" width="8.32" height="8.32"/>
  <rect class="cls-2" x="41.72" y="50.04" width="8.32" height="8.32"/>
  <rect class="cls-2" x="41.72" y="58.36" width="8.32" height="8.32"/>
  <rect class="cls-2" x="50.04" y=".14" width="8.32" height="8.32"/>
  <rect class="cls-2" x="50.04" y="8.46" width="8.32" height="8.32"/>
  <rect class="cls-2" x="50.04" y="16.77" width="8.32" height="8.32"/>
  <rect class="cls-2" x="50.04" y="25.09" width="8.32" height="8.32"/>
  <rect class="cls-2" x="50.04" y="33.41" width="8.32" height="8.32"/>
  <rect class="cls-2" x="50.04" y="41.72" width="8.32" height="8.32"/>
  <rect class="cls-2" x="50.04" y="50.04" width="8.32" height="8.32"/>
  <rect class="cls-2" x="50.04" y="58.36" width="8.32" height="8.32"/>
  <rect class="cls-2" x="58.36" y=".14" width="8.32" height="8.32"/>
  <rect class="cls-2" x="58.36" y="8.46" width="8.32" height="8.32"/>
  <rect class="cls-2" x="58.36" y="16.77" width="8.32" height="8.32"/>
  <rect class="cls-2" x="58.36" y="25.09" width="8.32" height="8.32"/>
  <rect class="cls-2" x="58.36" y="33.41" width="8.32" height="8.32"/>
  <rect class="cls-2" x="58.36" y="41.72" width="8.32" height="8.32"/>
  <rect class="cls-2" x="58.36" y="50.04" width="8.32" height="8.32"/>
  <rect class="cls-2" x="58.36" y="58.36" width="8.32" height="8.32"/>
  <line class="cls-1" x1=".14" y1="58.36" x2="66.67" y2="58.36"/>
  <line class="cls-1" x1=".14" y1="16.77" x2="66.67" y2="16.77"/>
  <rect class="cls-2" x="86.82" y=".14" width="8.32" height="8.32"/>
  <rect class="cls-2" x="86.82" y="8.46" width="8.32" height="8.32"/>
  <rect class="cls-2" x="86.82" y="16.77" width="8.32" height="8.32"/>
  <rect class="cls-2" x="86.82" y="25.09" width="8.32" height="8.32"/>
  <rect class="cls-2" x="86.82" y="33.41" width="8.32" height="8.32"/>
  <rect class="cls-2" x="86.82" y="41.72" width="8.32" height="8.32"/>
  <rect class="cls-2" x="86.82" y="50.04" width="8.32" height="8.32"/>
  <rect class="cls-2" x="86.82" y="58.36" width="8.32" height="8.32"/>
  <rect class="cls-2" x="95.13" y=".14" width="8.32" height="8.32"/>
  <rect class="cls-2" x="95.13" y="8.46" width="8.32" height="8.32"/>
  <rect class="cls-2" x="95.13" y="16.77" width="8.32" height="8.32"/>
  <rect class="cls-3" x="95.13" y="25.09" width="8.32" height="8.32"/>
  <rect class="cls-3" x="95.13" y="33.41" width="8.32" height="8.32"/>
  <rect class="cls-3" x="95.13" y="41.72" width="8.32" height="8.32"/>
  <rect class="cls-2" x="95.13" y="50.04" width="8.32" height="8.32"/>
  <rect class="cls-2" x="95.13" y="58.36" width="8.32" height="8.32"/>
  <rect class="cls-2" x="103.45" y=".14" width="8.32" height="8.32"/>
  <rect class="cls-2" x="103.45" y="8.46" width="8.32" height="8.32"/>
  <rect class="cls-3" x="103.45" y="16.77" width="8.32" height="8.32"/>
  <rect class="cls-2" x="103.45" y="25.09" width="8.32" height="8.32"/>
  <rect class="cls-3" x="103.45" y="33.41" width="8.32" height="8.32"/>
  <rect class="cls-2" x="103.45" y="41.72" width="8.32" height="8.32"/>
  <rect class="cls-3" x="103.45" y="50.04" width="8.32" height="8.32"/>
  <rect class="cls-2" x="103.45" y="58.36" width="8.32" height="8.32"/>
  <rect class="cls-2" x="111.77" y=".14" width="8.32" height="8.32"/>
  <rect class="cls-2" x="111.77" y="8.46" width="8.32" height="8.32"/>
  <rect class="cls-3" x="111.77" y="16.77" width="8.32" height="8.32"/>
  <rect class="cls-2" x="111.77" y="25.09" width="8.32" height="8.32"/>
  <rect class="cls-3" x="111.77" y="33.41" width="8.32" height="8.32"/>
  <rect class="cls-2" x="111.77" y="41.72" width="8.32" height="8.32"/>
  <rect class="cls-3" x="111.77" y="50.04" width="8.32" height="8.32"/>
  <rect class="cls-2" x="111.77" y="58.36" width="8.32" height="8.32"/>
  <rect class="cls-2" x="120.08" y=".14" width="8.32" height="8.32"/>
  <rect class="cls-2" x="120.08" y="8.46" width="8.32" height="8.32"/>
  <rect class="cls-3" x="120.08" y="16.77" width="8.32" height="8.32"/>
  <rect class="cls-2" x="120.08" y="25.09" width="8.32" height="8.32"/>
  <rect class="cls-3" x="120.08" y="33.41" width="8.32" height="8.32"/>
  <rect class="cls-2" x="120.08" y="41.72" width="8.32" height="8.32"/>
  <rect class="cls-3" x="120.08" y="50.04" width="8.32" height="8.32"/>
  <rect class="cls-2" x="120.08" y="58.36" width="8.32" height="8.32"/>
  <rect class="cls-2" x="128.4" y=".14" width="8.32" height="8.32"/>
  <rect class="cls-2" x="128.4" y="8.46" width="8.32" height="8.32"/>
  <rect class="cls-2" x="128.4" y="16.77" width="8.32" height="8.32"/>
  <rect class="cls-3" x="128.4" y="25.09" width="8.32" height="8.32"/>
  <rect class="cls-2" x="128.4" y="33.41" width="8.32" height="8.32"/>
  <rect class="cls-2" x="128.4" y="41.72" width="8.32" height="8.32"/>
  <rect class="cls-2" x="128.4" y="50.04" width="8.32" height="8.32"/>
  <rect class="cls-2" x="128.4" y="58.36" width="8.32" height="8.32"/>
  <rect class="cls-2" x="136.72" y=".14" width="8.32" height="8.32"/>
  <rect class="cls-2" x="136.72" y="8.46" width="8.32" height="8.32"/>
  <rect class="cls-2" x="136.72" y="16.77" width="8.32" height="8.32"/>
  <rect class="cls-2" x="136.72" y="25.09" width="8.32" height="8.32"/>
  <rect class="cls-2" x="136.72" y="33.41" width="8.32" height="8.32"/>
  <rect class="cls-2" x="136.72" y="41.72" width="8.32" height="8.32"/>
  <rect class="cls-2" x="136.72" y="50.04" width="8.32" height="8.32"/>
  <rect class="cls-2" x="136.72" y="58.36" width="8.32" height="8.32"/>
  <rect class="cls-2" x="145.03" y=".14" width="8.32" height="8.32"/>
  <rect class="cls-2" x="145.03" y="8.46" width="8.32" height="8.32"/>
  <rect class="cls-2" x="145.03" y="16.77" width="8.32" height="8.32"/>
  <rect class="cls-2" x="145.03" y="25.09" width="8.32" height="8.32"/>
  <rect class="cls-2" x="145.03" y="33.41" width="8.32" height="8.32"/>
  <rect class="cls-2" x="145.03" y="41.72" width="8.32" height="8.32"/>
  <rect class="cls-2" x="145.03" y="50.04" width="8.32" height="8.32"/>
  <rect class="cls-2" x="145.03" y="58.36" width="8.32" height="8.32"/>
  <line class="cls-1" x1="86.82" y1="58.36" x2="153.35" y2="58.36"/>
  <line class="cls-1" x1="86.82" y1="16.77" x2="153.35" y2="16.77"/>
</svg>